<svg width="126" height="125" viewBox="0 0 126 125" fill="none" xmlns="http://www.w3.org/2000/svg">
<g clip-path="url(#clip0_246_79)">
<path d="M58.6117 0.433494C111.5 -2.72806 144.783 55.9977 113.706 98.9687C85.6097 137.818 25.2942 131.46 5.73285 87.8814C-11.8798 48.6426 15.501 3.00888 58.6117 0.433494ZM58.8314 2.84052C14.6569 5.46579 -11.3213 54.2953 10.8005 92.4772C33.8699 132.296 92.6887 132.149 115.325 92.0376C138.9 50.2701 106.665 -0.00301295 58.8314 2.84052Z" fill="white"/>
<path d="M63.284 125C61.0812 125 58.8565 124.888 56.6224 124.66C33.8385 122.347 14.7071 108.646 5.44418 88.0059C1.12651 78.3872 -0.636958 68.229 0.203983 57.8152C0.991582 48.05 4.14511 38.4063 9.32255 29.9318C14.4404 21.554 21.4785 14.4202 29.6746 9.30061C38.4323 3.8318 48.1596 0.745069 58.5929 0.121487C71.2667 -0.636164 83.5858 2.18242 94.2137 8.26858C104.192 13.9837 112.448 22.3802 118.09 32.5508C123.681 42.631 126.402 53.9147 125.953 65.186C125.473 77.218 121.328 88.9631 113.96 99.1493C102.046 115.624 83.454 124.997 63.284 124.997V125ZM62.5654 0.626588C61.2601 0.626588 59.9485 0.667121 58.6274 0.745069C38.3538 1.95482 20.578 12.7116 9.85912 30.2561C-0.844055 47.7725 -2.27805 69.2673 6.0184 87.7534C15.1903 108.185 34.1303 121.751 56.6883 124.04C79.1489 126.319 100.367 116.878 113.449 98.7845C127.644 79.1542 129.21 53.8898 117.537 32.8502C106.37 12.7241 85.5564 0.626588 62.5654 0.626588ZM62.989 122.546C40.9834 122.546 21.3907 111.384 10.5275 92.636C2.3917e-05 74.4586 -0.251004 52.4836 9.85912 33.8448C19.828 15.4647 38.1279 3.76008 58.8126 2.52851C70.3002 1.84569 81.5713 4.25271 91.4116 9.48768C100.7 14.4296 108.598 21.7816 114.252 30.7487C126.157 49.6245 126.659 72.5941 115.601 92.1933C104.945 111.075 85.4152 122.421 63.3562 122.546C63.2338 122.546 63.1114 122.546 62.9922 122.546H62.989ZM58.8502 3.15209C38.3852 4.36808 20.2768 15.9542 10.4114 34.141C0.404806 52.5865 0.652695 74.337 11.0735 92.3211C21.8206 110.873 41.2124 121.919 62.9922 121.919C63.1146 121.919 63.2307 121.919 63.353 121.919C85.183 121.798 104.512 110.57 115.055 91.8846C126 72.4881 125.501 49.7586 113.722 31.0761C101.848 12.2564 81.3329 1.81763 58.8502 3.15209Z" fill="#1D1D1B"/>
<path d="M58.8313 2.84048C106.665 -0.00305463 138.9 50.2701 115.325 92.0407C92.6886 132.153 33.8667 132.296 10.8004 92.4803C-11.3214 54.2953 14.6568 5.46575 58.8313 2.84048ZM108.237 30.8019H71.9883C71.527 30.8019 70.8681 31.7466 70.7896 32.2392C70.3441 35.064 71.0752 38.896 70.774 41.858C70.6484 43.0927 70.2939 44.0031 68.9101 44.1652C66.2649 44.4739 59.9264 44.4146 57.2153 44.1714C56.1987 44.081 55.4801 43.7006 55.2259 42.6437C54.5419 39.7752 55.6558 35.1638 55.1193 32.2392C55.044 31.8245 54.3003 30.805 53.9175 30.805H17.6691V94.3043H53.9175C54.3474 94.3043 55.0785 93.1725 55.1381 92.6705C55.4362 90.2448 54.5419 83.5194 55.477 81.842C55.8378 81.1966 56.274 81.0033 56.9863 80.9347C60.8113 80.5637 65.2357 81.2465 69.1329 80.9347C69.6255 80.9191 70.2123 81.4304 70.4257 81.8389C71.436 83.7658 70.3692 90.2697 70.7865 92.8638C70.8618 93.3377 71.6588 94.3012 71.9852 94.3012H108.233V30.8019H108.237Z" fill="black"/>
<path d="M108.237 30.8017V94.301H71.9883C71.662 94.301 70.8681 93.3376 70.7897 92.8636C70.3692 90.2695 71.4361 83.7656 70.4288 81.8387C70.2155 81.4303 69.6287 80.9189 69.136 80.9345C65.242 81.2463 60.8176 80.5635 56.9895 80.9345C56.2772 81.0031 55.841 81.1964 55.4802 81.8418C54.5451 83.5193 55.4394 90.2446 55.1413 92.6703C55.0785 93.1723 54.3505 94.3041 53.9207 94.3041H17.6692V30.8017H53.9175C54.3003 30.8017 55.0409 31.8213 55.1193 32.2359C55.6559 35.1605 54.542 39.7719 55.226 42.6404C55.477 43.6974 56.1956 44.0778 57.2154 44.1682C59.9265 44.4114 66.2649 44.4706 68.9101 44.1619C70.2939 43.9998 70.6485 43.0894 70.774 41.8547C71.0752 38.8927 70.3473 35.0608 70.7897 32.2359C70.8681 31.7433 71.5302 30.7986 71.9883 30.7986H108.237V30.8017ZM52.1227 72.987C60.3313 81.2837 74.8344 77.4456 77.5423 66.1026C80.6488 53.0854 66.5505 42.8836 54.9781 49.8116C46.895 54.6506 45.5207 66.3147 52.1227 72.987Z" fill="white"/>
<path d="M52.1226 72.9872C45.5206 66.3148 46.895 54.6507 54.9781 49.8118C66.5504 42.8838 80.6487 53.0856 77.5423 66.1028C74.8343 77.4489 60.3312 81.287 52.1226 72.9872Z" fill="#E3201B"/>
</g>
<defs>
<clipPath id="clip0_246_79">
<rect width="126" height="125" fill="white"/>
</clipPath>
</defs>
</svg>
