<svg width="337" height="337" viewBox="0 0 337 337" fill="none" xmlns="http://www.w3.org/2000/svg">
<g clip-path="url(#clip0_69_44)">
<path d="M168.192 -0.000271383C299.569 -0.205353 381.157 145.063 311.57 257.467C248.647 359.11 101.729 364.391 31.8998 267.182C-48.1451 155.746 31.7526 0.211219 168.192 -0.000271383ZM163.68 4.07572C38.0123 8.1389 -37.7314 146.415 28.2963 254.589C91.687 358.45 243.482 359.283 307.8 255.941C375.678 146.883 298.507 7.27371 172.109 3.92191L163.68 4.07572Z" fill="black"/>
<path d="M163.68 4.07605L172.11 3.92224C298.507 7.27404 375.678 146.883 307.801 255.942C243.482 359.29 91.6874 358.45 28.2967 254.589C-37.7311 146.415 38.0126 8.13923 163.68 4.07605ZM159.187 12.1768C43.7539 18.3292 -24.834 146.229 32.8986 246.828C92.033 349.875 241.165 351.439 302.405 249.642C367.594 141.275 284.567 5.4924 159.187 12.1768Z" fill="white"/>
<path d="M159.187 12.1767C284.567 5.49229 367.594 141.275 302.405 249.642C241.165 351.445 92.0331 349.875 32.8987 246.828C-24.834 146.229 43.754 18.3291 159.187 12.1767ZM161.082 24.1932V17.4447H155.238L155.686 36.3506L161.107 36.152C162.253 34.8766 160.877 33.236 161.261 31.8388C161.415 31.2685 163.546 28.8908 164.013 28.6985C164.769 28.3845 164.621 28.9997 164.781 29.2689C166.061 31.4415 166.727 33.9986 168.506 35.8956H175.022L168.289 24.4111L174.574 17.0025L166.58 17.5472L161.088 24.1996L161.082 24.1932ZM191.094 19.3481C189.679 18.9059 185.685 17.8613 184.674 18.7905L175.464 35.8956L181.109 36.6711L182.652 33.8384L189.372 34.569L189.443 37.6516L195.683 38.5937L191.087 19.3481H191.094ZM139.019 20.1748L124.221 23.2895L128.273 41.7468L143.544 38.1323L143.109 34.0947L133.425 36.2673L132.337 33.377L132.76 32.5182L140.671 30.5122L139.941 26.9041L131.639 29.1151L130.513 26.2376L139.967 23.7381L139.026 20.1748H139.019ZM211.87 34.5498C216.382 35.4021 219.423 29.8713 216.747 26.2888C214.673 23.5138 206.257 22.8281 203.095 21.0721L197.674 39.068L203.293 40.3689L205.098 33.9153C207.23 30.7558 208.612 41.7276 208.951 42.2019L215.013 44.0027C214.545 40.683 214.347 37.0748 211.87 34.5562V34.5498ZM118.378 36.7928C122.813 31.9414 119.882 25.8787 113.091 27.6795C111.875 28 102.78 31.544 102.658 32.1016L109.41 48.9311L114.748 47.111C115.222 46.4637 112.688 41.8622 112.406 40.7343C112.239 40.0677 111.913 40.0741 112.79 39.5166C115.03 38.9398 118.403 43.5349 120.503 44.3616L126.461 42.6441C126.628 41.9455 126.359 41.9263 125.981 41.5546C124.068 39.6512 121.059 37.1581 118.371 36.7928H118.378ZM235.193 32.8066C233.58 32.5502 230.265 30.1277 228.972 30.7109L215.48 44.227C217.97 45.8164 220.933 48.2646 222.469 44.4257C225.106 45.9061 229.919 45.9831 228.127 50.0398L233.894 52.5521L235.193 32.8066ZM86.3942 41.8109C85.5685 41.3303 81.1138 44.227 81.1202 44.6757C86.471 51.7061 88.2952 62.4985 99.1824 55.6155C108.783 49.5463 99.8737 41.6892 96.1294 35.0112L91.4506 38.3758C91.4506 38.9975 97.5183 46.9316 97.9535 48.9503C98.3568 50.8153 96.2382 53.0968 94.3948 52.8981C91.7514 52.6097 87.8855 44.0732 86.4006 41.8173L86.3942 41.8109ZM255.406 49.7899C255.63 48.3992 257.883 47.1751 256.853 46.0087L242.445 36.7992L240.192 40.8368L245.127 43.7656L237.504 55.4745C238.4 56.1025 241.972 58.9929 242.855 58.3648L249.671 47.1687C251.348 46.9316 254.101 50.5525 255.413 49.7835L255.406 49.7899ZM159.635 40.9778C71.705 46.2779 15.8541 140.077 51.7738 220.725C91.6746 310.307 214.712 323.375 272.016 243.515C335.406 155.182 267.516 34.4793 159.635 40.9778ZM70.7321 52.7764V60.8771C70.7321 60.9796 71.5898 61.4795 70.9498 61.5564C70.0281 61.8192 70.3289 60.9604 69.8425 60.4413C68.6712 59.1852 67.5255 57.9354 66.4118 56.6281L62.2387 60.358L74.1628 74.1305L78.3424 70.721C76.2494 68.0934 75.0909 66.5361 75.6797 62.9087L83.93 65.9657L88.7112 61.3385L76.1662 57.4612L76.563 47.6045L70.7257 52.7828L70.7321 52.7764ZM273.449 59.3069L261.32 49.3989L249.595 63.9918L261.48 73.669L263.989 70.7787L256.878 64.1071L259.221 61.5885L265.577 67.3948L267.938 64.4724L261.948 58.8455C261.57 58.5443 262.613 56.7306 262.716 56.6729C264.066 55.8846 269.001 61.832 270.595 62.4152L273.443 59.3133L273.449 59.3069ZM72.5307 75.5084L54.3148 69.2085L50.0649 73.9126L59.7169 91.2419C60.5873 89.7551 63.4547 87.903 63.0131 86.1918C62.8019 85.3651 61.4066 84.6345 61.9442 83.6091L65.8037 79.3024L68.9464 80.238L72.5307 75.5019V75.5084ZM280.976 74.2586C276.97 74.9123 272.169 79.642 272.067 83.827C271.926 89.6077 279.011 96.6382 284.663 92.7993L282.916 88.2939C271.587 90.287 279.37 76.9696 285.303 80.065C288.305 81.6288 286.167 84.1154 286.698 85.3907C286.878 85.8201 290.071 88.5438 290.308 88.5438C295.121 82.3081 288.196 73.0858 280.976 74.2586ZM46.9094 85.8586C40.2785 83.4681 35.2733 92.5878 36.1501 98.2019C37.027 103.816 46.2822 107.898 51.1786 104.303C54.4748 101.881 57.1374 96.0037 56.3374 91.9341C55.9853 90.1268 51.2682 88.5951 49.8216 87.2236L45.1941 94.6322L48.4455 96.6766L50.7241 93.5042C53.1755 95.3308 51.1402 99.5542 48.5671 100.362C45.6869 101.272 39.9265 97.5995 40.8033 93.9401C41.6034 90.6139 44.3748 91.4022 44.8741 90.8126C45.7317 89.7936 46.1158 87.1083 46.9094 85.8457V85.8586ZM288.318 101.643L300.229 95.3179L297.726 90.5498L281.584 99.2017L288.292 111.763C288.83 112.103 291.876 110.59 292.145 110.167C292.804 109.142 287.582 102.694 288.324 101.643H288.318ZM308.959 112.852L306.502 107.565C299.775 110.859 289.95 110.603 291.537 120.626C293.509 133.111 305.055 127.702 312.582 124.331L312.902 123.901L311.2 118.71C308.223 119.389 301.88 123.094 299.25 123.19C296.382 123.299 294.737 119.274 297.106 117.415C298.789 116.102 308.537 113.378 308.953 112.846L308.959 112.852ZM48.708 109.712L28.7768 109.238L26.3638 114.89L41.0657 128.612L43.1971 123.433L40.5921 121.158L42.9155 115.166L46.391 115.038L48.7144 109.718L48.708 109.712ZM40.1377 130.438L22.1906 126.356L20.9233 131.553L26.9462 133.534L26.2358 139.417L19.496 138.065L18.1391 143.909L36.5662 147.966L37.7183 142.551L30.2873 140.545L31.6314 134.456L39.2672 136.257L40.1377 130.438ZM308.966 146.165C309.215 145.903 311.718 149.761 315.488 147.075C319.104 144.499 315.462 134.828 314.822 131.047L296.83 134.469C297.566 138.545 298.206 150.075 303.385 150.651C306.175 150.959 308.998 149.139 308.966 146.165ZM313.453 210.529C314.099 205.235 317.286 199.73 310.924 196.628C301.599 192.084 298.731 199.07 297.272 206.921L313.453 210.529ZM37.4751 198.82L36.8094 196.583L21.2882 200.627L21.7426 202.877L29.3656 201.089L31.1449 209.138L23.9828 210.984L24.4884 212.733L40.1697 209.177L39.7152 206.927L33.6283 208.625L31.1769 200.185L37.4751 198.826V198.82ZM292.779 220.873C298.021 221.719 305.721 228.025 309.503 221.648C314.873 212.599 302.757 210.997 296.83 208.728L296.376 210.977C300.575 212.74 310.892 213.349 308.294 219.988C306.086 225.628 297.355 219.392 293.476 218.617L292.779 220.879V220.873ZM42.1922 215.021H24.8852C25.1797 218.239 30.4729 216.015 31.2282 217.091L33.3403 223.295L29.5832 226.717L30.2809 228.973L42.9027 217.508L42.1858 215.028L42.1922 215.021ZM293.227 222.673L291.87 222.424L286.961 232.992L301.33 239.586L306.258 228.531H304.697L300.197 237.036L295.467 234.825L299.512 226.288L297.496 226.269L294.085 233.453L289.662 231.389L293.22 222.68L293.227 222.673ZM46.0069 223.577L31.1769 230.332L35.2413 239.311L37.0206 238.644L33.8716 231.229L46.0261 225.596L46.0069 223.577ZM50.9417 233.479L37.0526 241.849L42.1922 250.571C45.2389 249.007 39.4016 244.22 39.7536 242.752L51.7802 235.062L50.9481 233.479H50.9417ZM294.571 247.879L282.461 240.868L281.124 241.861C281.015 242.464 281.623 242.823 282.02 243.13C283.197 244.047 294.04 250.718 294.757 250.545L299.954 242.252L298.386 241.15L294.565 247.886L294.571 247.879ZM55.7741 249.783C55.0957 249.924 53.3867 250.847 52.7787 251.282C44.1764 257.486 52.2026 270.067 60.9906 264.459C69.196 259.229 64.9653 247.892 55.7677 249.783H55.7741ZM291.492 251.968L287.159 258.223L275.536 250.199L274.352 251.25L287.594 260.94L293.227 252.378L291.492 251.962V251.968ZM286.487 262.286L270.441 256.967L268.585 258.518L276.157 273.527C276.592 273.867 277.776 272.848 277.872 272.335C278.262 270.284 274.205 269.285 276.816 265.862C277.206 265.35 279.658 262.895 280.067 262.786C282.116 262.229 284.81 266.055 286.481 262.28L286.487 262.286ZM64.8885 274.431L70.9946 261.85L68.7672 259.614L57.7263 270.669L59.48 272.181C59.5184 271.79 59.64 271.329 59.9281 271.053C62.6803 268.471 65.2085 265.715 68.0247 263.183C67.4679 266.785 63.5828 271.316 62.8211 274.437C62.5971 275.347 62.8595 275.847 63.1027 276.674L76.1214 270.842L67.1414 280.064L68.7032 281.628L79.6801 269.772L77.3439 268.189L64.8821 274.431H64.8885ZM267.606 268.131C268.214 267.522 264.258 261.325 262.863 264.081C262.21 265.369 267.062 268.669 267.606 268.131ZM272.099 276.232C270.044 275.988 266.985 281.192 265.577 281.07L256.366 271.028L254.606 272.015L265.199 283.852L272.515 277.969L272.099 276.232ZM81.9714 287.479C81.357 284.711 83.674 273.861 82.6435 272.175C82.4131 271.797 81.7154 271.547 81.2802 271.4L71.1802 283.66L72.7483 285.23L80.6081 275.335C81.165 278.142 78.8608 288.889 79.9297 290.639C80.0961 290.914 81.0114 291.44 81.293 291.414C82.0867 291.357 90.1385 280.404 90.8746 278.77L89.8249 277.59L81.965 287.479H81.9714ZM252.724 284.736C252.993 284.006 252.673 282.948 251.72 283.038C250.599 283.14 246.554 287.172 244.897 287.505L242.029 284.038L249.422 278.494L248.513 276.764L239.354 283.269L248.097 296.477L258.178 290.177L256.635 288.402L248.327 293.76L246.1 288.896L252.731 284.736H252.724ZM95.4509 281.192C93.8444 280.846 94.2412 279.737 93.0123 281.218C89.9785 284.877 88.0711 290.056 84.6661 293.561C85.2997 294.343 86.1894 295.292 87.1239 294.228L95.4445 281.192H95.4509ZM105.788 292.44C108.399 282.256 89.1336 282.153 96.8142 292.202C98.1071 293.894 101.832 295.843 100.629 298.291C99.2848 301.027 93.838 298.464 93.326 296.157C93.0891 295.074 93.3196 294.029 93.1403 292.959L91.681 292.42C88.0327 298.265 98.7408 304.962 102.402 299.169C105.66 294.01 95.6813 291.119 97.4735 287.486C98.9776 284.441 106.012 288.607 103.541 291.985L105.788 292.44ZM229.849 292.888C230.585 292.209 241.735 299.874 243.341 299.451C243.744 299.348 244.551 298.855 244.647 298.464L237.274 284.358L235.744 285.832L241.536 296.484C239.04 295.894 229.151 289.062 227.596 289.472C227.193 289.575 226.386 290.068 226.29 290.459L233.465 304.584C235.385 304.238 235.545 304.264 234.893 302.469C234.457 301.271 229.452 293.26 229.849 292.895V292.888ZM109.66 289.793L103.298 303.674L103.778 305.033C105.948 305.597 106.325 300.13 107.81 299.227C111.126 301.367 117.648 303.719 119.069 298.297C120.554 292.625 113.571 291.651 109.666 289.793H109.66ZM223.992 291.542L221.765 291.985C223.634 296.99 226.245 301.777 228.089 306.821L230.31 306.372L223.999 291.536L223.992 291.542ZM212.318 295.586V313.14C215.518 312.499 213.329 308.942 214.334 307.282C214.507 306.994 218.885 305.2 219.403 305.116C222.29 304.648 222.93 309.852 226.252 308.186C224.652 306.334 215.755 295.247 214.373 295.17C213.777 295.138 213.016 295.721 212.324 295.586H212.318ZM124.1 296.593C117.181 298.028 115.491 311.563 124.554 313.031C136.382 314.947 137.214 293.862 124.1 296.593ZM204.682 307.731C206.814 305.834 208.65 304.7 207.626 301.412C205.975 296.125 197.93 300.431 194.352 300.547C194.64 302.482 197.264 315.62 197.904 316.101C198.544 316.582 199.703 316.389 200.176 315.62L198.397 309.737C198.378 308.5 201.7 308.109 202.557 308.263C205.841 308.846 208.145 315.479 211.422 312.922C209.335 311.128 207.646 308.135 204.689 307.744L204.682 307.731ZM143.551 309.545C149.023 310.538 150.873 303.168 145.721 301.297C144.799 300.963 137.214 299.412 136.849 299.675L133.668 315.383L135.915 315.851L137.272 308.647C141.112 309.455 141.515 309.429 143.186 312.852C144.447 315.434 144.031 318.209 147.602 318.1C146.828 315.011 145.465 312.089 143.557 309.557L143.551 309.545ZM162.42 303.251L149.843 301.886L149.817 303.931L154.048 304.206L154.72 304.879L153.427 318.543L155.673 318.991L157.037 304.604L162.42 305.039V303.258V303.251ZM191.484 302.944C189.327 300.784 183.708 302.258 180.917 302.847L182.652 318.543C183.208 319.126 191.561 317.556 192.707 316.678C195.376 314.627 194.729 309.705 191.196 309.077C191.279 307.744 192.451 307.737 192.585 306.167C192.681 304.982 192.323 303.79 191.484 302.944ZM167.822 314.486H174.113C173.928 313.646 174.721 312.147 173.441 312.23C171.662 312.345 169.761 313.05 167.822 312.691V314.492V314.486Z" fill="black"/>
<path d="M159.635 40.9778C267.516 34.4793 335.406 155.189 272.016 243.515C214.705 323.368 91.6747 310.301 51.7739 220.725C15.8542 140.077 71.7051 46.2779 159.635 40.9778ZM160.09 45.9318C69.9833 51.328 16.9935 151.696 62.1171 230.178C109.174 312.025 229.151 311.724 275.325 229.275C323.405 143.416 257.653 40.0806 160.083 45.9254L160.09 45.9318Z" fill="white"/>
<path d="M308.966 146.165C308.998 149.139 306.175 150.966 303.384 150.652C298.206 150.075 297.56 138.545 296.83 134.469L314.822 131.047C315.462 134.828 319.104 144.493 315.488 147.075C311.718 149.761 309.215 145.909 308.966 146.165ZM312.537 137.635L308.978 138.09C309.055 139.18 309.548 142.179 310.611 142.519L312.115 142.346C313.824 141.166 312.55 139.314 312.544 137.635H312.537ZM305.311 139.013L301.784 139.436C301.72 140.782 302.418 144.39 303.877 144.755C307.404 144.819 305.913 141.243 305.311 139.02V139.013Z" fill="white"/>
<path d="M161.082 24.1932L166.573 17.5408L174.568 16.9961L168.282 24.4047L175.016 35.8892H168.5C166.721 33.9922 166.055 31.4351 164.775 29.2625C164.615 28.9934 164.762 28.3781 164.007 28.6921C163.546 28.8844 161.415 31.2621 161.255 31.8324C160.871 33.2296 162.247 34.8638 161.101 36.1456L155.68 36.3442L155.232 17.4383H161.075V24.1932H161.082Z" fill="white"/>
<path d="M70.7322 52.7765L76.5695 47.5981L76.1726 57.4549L88.7177 61.3322L83.9365 65.9593L75.6862 62.9023C75.0974 66.5297 76.2559 68.0806 78.3488 70.7147L74.1693 74.1241L62.2451 60.3516L66.4183 56.6217C67.5319 57.9355 68.6776 59.1788 69.8489 60.435C70.3354 60.9541 70.0345 61.8129 70.9562 61.5501C71.5899 61.4732 70.7386 60.9797 70.7386 60.8708V52.77L70.7322 52.7765Z" fill="white"/>
<path d="M211.87 34.5498C214.347 37.062 214.545 40.6702 215.013 43.9963L208.951 42.1955C208.612 41.7276 207.23 30.7494 205.098 33.9089L203.293 40.3626L197.674 39.0616L203.095 21.0657C206.257 22.8217 214.673 23.501 216.747 26.2824C219.423 29.8714 216.382 35.3957 211.87 34.5434V34.5498ZM207.582 26.5516C206.884 26.6798 206.161 29.3779 206.673 30.0636C207.838 30.8199 210.071 31.4479 211.236 30.5379L211.889 29.3522C212.088 27.1604 209.054 27.1156 207.575 26.558L207.582 26.5516Z" fill="white"/>
<path d="M118.378 36.7929C121.066 37.1582 124.074 39.6512 125.988 41.5546C126.359 41.9264 126.634 41.952 126.468 42.6441L120.509 44.3617C118.41 43.5286 115.037 38.9399 112.796 39.5167C111.919 40.0806 112.239 40.0678 112.412 40.7343C112.7 41.8623 115.229 46.4638 114.755 47.1111L109.417 48.9312L102.664 32.1017C102.78 31.5441 111.881 28 113.097 27.6796C119.888 25.8787 122.82 31.9415 118.384 36.7929H118.378ZM114.646 34.8639C115.491 33.9025 115.126 32.5311 114.025 31.903C113.2 31.4864 109.532 32.8451 109.398 33.4475L110.953 36.7801C111.868 35.9726 113.891 35.7226 114.646 34.8639Z" fill="white"/>
<path d="M40.1377 130.438L39.2609 136.264L31.6314 134.463L30.2873 140.545L37.7183 142.551L36.5662 147.966L18.1392 143.909L19.4961 138.058L26.2358 139.417L26.9463 133.534L20.9234 131.553L22.1907 126.356L40.1377 130.438Z" fill="white"/>
<path d="M46.9094 85.8586C46.1158 87.1211 45.7381 89.8064 44.8741 90.8254C44.3748 91.415 41.6034 90.6267 40.8033 93.9529C39.9265 97.6123 45.6805 101.278 48.5672 100.374C51.1402 99.5606 53.1819 95.3436 50.7241 93.5171L48.4456 96.6894L45.1941 94.645L49.8217 87.2365C51.2618 88.6015 55.979 90.1397 56.3374 91.9469C57.1375 96.0101 54.4748 101.893 51.1786 104.316C46.2822 107.905 37.059 103.995 36.1502 98.2147C35.2413 92.434 40.2785 83.4809 46.9094 85.8714V85.8586Z" fill="white"/>
<path d="M86.3942 41.811C87.8791 44.0669 91.745 52.597 94.3884 52.8918C96.2382 53.0969 98.3504 50.809 97.9471 48.944C97.5119 46.9317 91.4442 38.9912 91.4442 38.3695L96.123 35.0049C99.8673 41.6893 108.783 49.5464 99.176 55.6092C88.2823 62.4922 86.4582 51.6998 81.1138 44.6693C81.1138 44.2271 85.5685 41.3304 86.3878 41.8046L86.3942 41.811Z" fill="white"/>
<path d="M308.959 112.852C308.537 113.384 298.789 116.102 297.112 117.422C294.744 119.274 296.389 123.305 299.256 123.196C301.887 123.094 308.23 119.396 311.206 118.717L312.908 123.908L312.588 124.337C305.068 127.708 293.521 133.117 291.543 120.633C289.956 110.603 299.781 110.866 306.508 107.572L308.966 112.859L308.959 112.852Z" fill="white"/>
<path d="M273.449 59.307L270.601 62.4088C269.007 61.8256 264.073 55.8783 262.722 56.6666C262.62 56.7306 261.576 58.5379 261.954 58.8391L267.945 64.4661L265.583 67.3885L259.227 61.5821L256.885 64.1008L263.996 70.7723L261.487 73.6627L249.601 63.9854L261.327 49.3926L273.456 59.3006L273.449 59.307Z" fill="white"/>
<path d="M139.019 20.1749L139.954 23.7382L130.5 26.2376L131.633 29.1152L139.935 26.9042L140.664 30.5123L132.753 32.5183L132.331 33.377L133.419 36.2674L143.103 34.0948L143.538 38.1324L128.266 41.7469L124.215 23.296L139.019 20.1749Z" fill="white"/>
<path d="M235.193 32.8066L233.894 52.5521L228.127 50.0398C229.913 45.9831 225.106 45.8998 222.469 44.4257C220.933 48.271 217.97 45.8164 215.48 44.2271L228.972 30.7109C230.265 30.1277 233.587 32.5502 235.193 32.8066ZM230.297 36.3507L226.239 40.1575C224.607 41.4777 229.074 42.9966 229.401 42.6441L230.303 36.3442L230.297 36.3507Z" fill="white"/>
<path d="M48.708 109.712L46.3846 115.031L42.9092 115.16L40.5858 121.152L43.1908 123.427L41.0594 128.605L26.3574 114.884L28.7704 109.231L48.7016 109.706L48.708 109.712ZM38.8192 114.66L32.5275 114.211L37.2511 118.242L38.8192 114.66Z" fill="white"/>
<path d="M72.5307 75.5084L68.9465 80.2445L65.8038 79.3088L61.9443 83.6155C61.4067 84.6409 62.802 85.3715 63.0132 86.1983C63.4548 87.9094 60.5938 89.7616 59.7169 91.2484L50.0649 73.919L54.3149 69.215L72.5307 75.5148V75.5084ZM59.0513 80.456L61.7459 77.54L55.9022 74.6048L59.0513 80.456Z" fill="white"/>
<path d="M191.094 19.3481L195.689 38.5937L189.449 37.6516L189.379 34.569L182.658 33.8384L181.115 36.6711L175.47 35.8956L184.681 18.7905C185.692 17.8612 189.686 18.9059 191.1 19.3481H191.094ZM188.495 30.493L187.375 23.7445L184.457 30.038L188.495 30.4866V30.493Z" fill="white"/>
<path d="M280.976 74.2586C288.196 73.0858 295.128 82.3081 290.308 88.5438C290.071 88.5438 286.878 85.8201 286.698 85.3907C286.173 84.1154 288.311 81.6288 285.303 80.065C279.37 76.9696 271.587 90.287 282.916 88.2939L284.663 92.7993C279.011 96.6382 271.926 89.6077 272.067 83.827C272.169 79.642 276.963 74.9123 280.976 74.2586Z" fill="white"/>
<path d="M255.406 49.7899C254.094 50.5589 251.342 46.9316 249.665 47.1751L242.848 58.3713C241.965 58.9993 238.394 56.1089 237.498 55.4809L245.121 43.772L240.186 40.8432L242.439 36.8057L256.846 46.0151C257.877 47.1879 255.624 48.412 255.4 49.7963L255.406 49.7899Z" fill="white"/>
<path d="M288.318 101.643C287.575 102.694 292.804 109.142 292.139 110.167C291.864 110.59 288.817 112.103 288.286 111.763L281.578 99.2017L297.72 90.5498L300.223 95.3179L288.311 101.643H288.318Z" fill="white"/>
<path d="M64.8884 274.431L77.3503 268.189L79.6864 269.772L68.7096 281.628L67.1478 280.064L76.1278 270.842L63.1091 276.674C62.8659 275.847 62.6035 275.347 62.8275 274.437C63.5891 271.316 67.4743 266.785 68.0311 263.183C65.2213 265.715 62.6867 268.471 59.9344 271.053C59.6464 271.323 59.5248 271.784 59.4864 272.181L57.7327 270.669L68.7736 259.614L71.0009 261.85L64.8948 274.431H64.8884Z" fill="white"/>
<path d="M191.484 302.944C192.323 303.783 192.681 304.982 192.585 306.167C192.457 307.737 191.279 307.744 191.196 309.077C194.729 309.705 195.369 314.621 192.707 316.678C191.567 317.556 183.208 319.126 182.652 318.543L180.917 302.848C183.708 302.264 189.327 300.784 191.484 302.944ZM183.554 309.09C185.973 308.577 190.351 309.397 190.339 306.161C190.326 301.905 185.685 304.392 183.1 304.142L183.554 309.096V309.09ZM184.002 310.891L184.892 316.543C187.618 316.268 193.276 316.383 192.003 312.115C191.1 309.09 186.217 311.076 184.002 310.891Z" fill="white"/>
<path d="M229.849 292.888C229.452 293.254 234.457 301.271 234.893 302.463C235.545 304.257 235.385 304.232 233.465 304.578L226.29 290.453C226.386 290.056 227.193 289.568 227.596 289.466C229.151 289.056 239.04 295.894 241.536 296.477L235.744 285.826L237.274 284.352L244.647 298.457C244.551 298.855 243.744 299.342 243.341 299.444C241.735 299.867 230.585 292.202 229.849 292.882V292.888Z" fill="white"/>
<path d="M204.682 307.731C207.639 308.122 209.329 311.121 211.415 312.909C208.138 315.466 205.834 308.833 202.551 308.25C201.693 308.096 198.371 308.487 198.39 309.724L200.17 315.607C199.696 316.376 198.55 316.575 197.897 316.088C197.245 315.601 194.633 302.469 194.345 300.534C197.923 300.419 205.969 296.112 207.62 301.399C208.644 304.687 206.807 305.828 204.676 307.718L204.682 307.731ZM196.585 301.893L198.192 307.25C200.579 306.359 207.377 306.084 205.348 301.886C204.036 299.169 198.774 301.816 196.579 301.886L196.585 301.893Z" fill="white"/>
<path d="M143.551 309.545C145.452 312.083 146.815 314.999 147.596 318.088C144.025 318.197 144.447 315.422 143.18 312.839C141.509 309.423 141.106 309.442 137.266 308.635L135.909 315.838L133.662 315.37L136.843 299.662C137.214 299.406 144.799 300.951 145.714 301.284C150.867 303.162 149.017 310.525 143.545 309.532L143.551 309.545ZM146.111 303.815C144.639 302.078 140.594 302.527 138.61 301.438L137.739 306.552C137.995 307.334 143.416 308.314 144.46 308.007C146.079 307.526 147.353 305.283 146.111 303.815Z" fill="white"/>
<path d="M81.9714 287.479L89.8312 277.591L90.8809 278.77C90.1449 280.404 82.093 291.35 81.2993 291.414C81.0177 291.434 80.1024 290.908 79.936 290.639C78.8607 288.883 81.1713 278.142 80.6145 275.335L72.7546 285.23L71.1865 283.66L81.2865 271.4C81.7218 271.547 82.4194 271.797 82.6498 272.175C83.6803 273.861 81.3633 284.711 81.9778 287.479H81.9714Z" fill="white"/>
<path d="M313.452 210.529L297.272 206.921C298.731 199.07 301.599 192.084 310.924 196.628C317.28 199.724 314.099 205.229 313.452 210.529ZM304.345 197.57C300.875 198.269 300.274 202.153 300.152 205.145L311.673 208.087C312.019 207.818 313.004 203.761 313.024 203.075C313.126 199.192 307.628 196.91 304.345 197.57Z" fill="white"/>
<path d="M293.227 222.674L289.668 231.383L294.091 233.447L297.502 226.262L299.518 226.282L295.473 234.818L300.203 237.029L304.703 228.518L306.265 228.525L301.336 239.58L286.967 232.992L291.87 222.424L293.227 222.674Z" fill="white"/>
<path d="M252.724 284.736L246.094 288.896L248.321 293.76L256.629 288.402L258.171 290.177L248.091 296.477L239.347 283.269L248.507 276.764L249.415 278.494L242.023 284.038L244.89 287.505C246.548 287.172 250.593 283.141 251.713 283.038C252.667 282.948 252.987 284.012 252.718 284.736H252.724Z" fill="white"/>
<path d="M124.1 296.593C137.214 293.862 136.376 314.954 124.554 313.031C115.491 311.564 117.181 298.028 124.1 296.593ZM125.002 298.387C119.901 299.419 118 309.468 124.208 311.128C132.779 313.422 134.987 296.368 125.002 298.387Z" fill="white"/>
<path d="M55.774 249.783C64.9651 247.892 69.1959 259.229 60.9968 264.459C52.2089 270.067 44.1827 257.486 52.7849 251.282C53.393 250.847 55.0955 249.917 55.7804 249.783H55.774ZM57.1373 251.571C55.2427 251.885 51.4728 254.916 51.0504 256.749C49.6423 262.85 56.126 265.818 60.8176 262.03C65.5092 258.242 63.0706 250.59 57.1373 251.577V251.571Z" fill="white"/>
<path d="M105.788 292.44L103.541 291.985C106.012 288.607 98.9776 284.442 97.4735 287.486C95.6814 291.113 105.66 294.01 102.402 299.169C98.7408 304.962 88.0391 298.265 91.681 292.42L93.1404 292.959C93.3196 294.029 93.0891 295.074 93.326 296.157C93.838 298.47 99.2848 301.027 100.629 298.291C101.832 295.843 98.1072 293.895 96.8142 292.203C89.14 282.154 108.399 282.256 105.788 292.44Z" fill="white"/>
<path d="M37.475 198.82L31.1769 200.172L33.6283 208.619L39.7152 206.921L40.1696 209.17L24.4883 212.727L23.9827 210.977L31.1449 209.132L29.3655 201.089L21.7425 202.877L21.2881 200.627L36.8029 196.577L37.475 198.82Z" fill="white"/>
<path d="M109.66 289.793C113.564 291.658 120.547 292.625 119.062 298.297C117.641 303.719 111.126 301.367 107.804 299.226C106.319 300.13 105.941 305.59 103.772 305.033L103.292 303.674L109.654 289.793H109.66ZM108.502 297.823C110.819 298.169 114.851 301.367 116.528 298.464C118.755 294.593 113.232 293.279 110.562 292.408L108.508 297.829L108.502 297.823Z" fill="white"/>
<path d="M286.487 262.286C284.817 266.061 282.116 262.235 280.074 262.793C279.658 262.908 277.213 265.356 276.822 265.869C274.211 269.291 278.269 270.291 277.878 272.342C277.782 272.854 276.598 273.867 276.163 273.534L268.591 258.524L270.447 256.973L286.494 262.293L286.487 262.286ZM274.352 265.882L277.936 262.056C277.936 261.524 271.055 258.89 270.755 259.133L274.358 265.882H274.352Z" fill="white"/>
<path d="M292.779 220.873L293.476 218.61C297.355 219.392 306.085 225.622 308.294 219.982C310.892 213.342 300.575 212.733 296.376 210.971L296.83 208.722C302.757 210.99 314.873 212.592 309.503 221.642C305.721 228.018 298.021 221.712 292.779 220.866V220.873Z" fill="white"/>
<path d="M212.318 295.586C213.016 295.721 213.777 295.138 214.366 295.17C215.749 295.24 224.652 306.334 226.245 308.186C222.924 309.852 222.284 304.642 219.397 305.116C218.878 305.2 214.5 307 214.328 307.282C213.329 308.942 215.512 312.499 212.312 313.14V295.586H212.318ZM219.064 303.681C219.506 303.091 215.038 297.932 214.123 297.387V305.039L219.064 303.687V303.681Z" fill="white"/>
<path d="M42.1922 215.021L42.9091 217.502L30.2872 228.967L29.5896 226.711L33.3467 223.289L31.2345 217.085C30.4793 216.015 25.186 218.232 24.8916 215.015H42.1986L42.1922 215.021ZM32.9755 216.822L34.998 221.763C37.0334 220.373 38.5759 218.418 40.6177 217.04C40.7329 215.662 40.1312 216.822 39.9456 216.822H32.9755Z" fill="white"/>
<path d="M162.42 303.251L162.426 305.033L157.043 304.597L155.68 318.985L153.433 318.536L154.726 304.873L154.048 304.2L149.817 303.924L149.842 301.886L162.42 303.251Z" fill="white"/>
<path d="M50.9417 233.479L51.7737 235.062L39.7472 242.752C39.3951 244.22 45.2388 249.007 42.1858 250.571L37.0461 241.849L50.9353 233.479H50.9417Z" fill="white"/>
<path d="M46.007 223.577L46.0262 225.596L33.8716 231.229L37.0207 238.644L35.2413 239.311L31.177 230.332L46.007 223.577Z" fill="white"/>
<path d="M291.492 251.968L293.227 252.385L287.601 260.947L274.358 251.257L275.542 250.199L287.159 258.223L291.492 251.968Z" fill="white"/>
<path d="M294.571 247.879L298.392 241.144L299.96 242.246L294.763 250.539C294.046 250.712 283.204 244.04 282.026 243.124C281.629 242.816 281.021 242.457 281.13 241.855L282.467 240.862L294.577 247.873L294.571 247.879Z" fill="white"/>
<path d="M272.099 276.232L272.515 277.969L265.199 283.852L254.606 272.015L256.366 271.028L265.577 281.07C266.985 281.186 270.038 275.988 272.099 276.232Z" fill="white"/>
<path d="M223.993 291.542L230.303 306.379L228.083 306.827C226.239 301.777 223.628 296.996 221.759 291.991L223.986 291.549L223.993 291.542Z" fill="white"/>
<path d="M95.4508 281.192L87.1302 294.228C86.1957 295.285 85.306 294.343 84.6724 293.561C88.0774 290.062 89.9848 284.877 93.0186 281.218C94.2475 279.737 93.8507 280.846 95.4572 281.192H95.4508Z" fill="white"/>
<path d="M167.822 314.486V312.685C169.761 313.044 171.662 312.345 173.441 312.224C174.721 312.14 173.928 313.64 174.113 314.479H167.822V314.486Z" fill="white"/>
<path d="M267.606 268.131C267.062 268.676 262.21 265.369 262.863 264.081C264.258 261.325 268.214 267.516 267.606 268.131Z" fill="white"/>
<path d="M160.09 45.9319C257.659 40.087 323.412 143.422 275.331 229.281C229.158 311.73 109.174 312.025 62.1233 230.185C16.9933 151.696 69.9831 51.3281 160.09 45.9319ZM260.866 103.406H186.927C185.986 103.406 184.642 105.348 184.482 106.36C183.573 112.167 185.064 120.043 184.45 126.131C184.194 128.669 183.471 130.541 180.648 130.874C175.252 131.508 162.323 131.387 156.793 130.887C154.72 130.701 153.254 129.919 152.735 127.747C151.34 121.85 153.612 112.372 152.518 106.36C152.364 105.508 150.847 103.412 150.066 103.412H76.1276V233.934H150.066C150.943 233.934 152.435 231.607 152.556 230.576C153.164 225.59 151.34 211.766 153.247 208.318C153.984 206.991 154.873 206.594 156.326 206.453C164.128 205.69 173.153 207.094 181.103 206.453C182.107 206.421 183.304 207.472 183.74 208.311C185.8 212.272 183.624 225.641 184.476 230.973C184.629 231.947 186.255 233.927 186.921 233.927H260.859V103.406H260.866Z" fill="black"/>
<path d="M305.311 139.013C305.913 141.237 307.404 144.813 303.877 144.749C302.418 144.384 301.72 140.776 301.784 139.43L305.311 139.007V139.013Z" fill="black"/>
<path d="M312.537 137.635C312.544 139.314 313.824 141.167 312.108 142.346L310.604 142.519C309.542 142.179 309.049 139.18 308.972 138.09L312.531 137.635H312.537Z" fill="black"/>
<path d="M207.582 26.5516C209.06 27.1156 212.087 27.154 211.895 29.3458L211.243 30.5314C210.078 31.4479 207.844 30.8198 206.679 30.0572C206.167 29.3714 206.89 26.6669 207.588 26.5452L207.582 26.5516Z" fill="black"/>
<path d="M114.646 34.8638C113.897 35.7226 111.868 35.9726 110.953 36.7801L109.398 33.4475C109.532 32.8451 113.2 31.4864 114.025 31.903C115.126 32.531 115.485 33.9025 114.646 34.8638Z" fill="black"/>
<path d="M230.297 36.3507L229.394 42.6506C229.068 43.003 224.607 41.4777 226.233 40.1639L230.29 36.3571L230.297 36.3507Z" fill="black"/>
<path d="M38.8191 114.66L37.2509 118.249L32.5273 114.211L38.8191 114.66Z" fill="black"/>
<path d="M59.0512 80.456L55.9021 74.6047L61.7458 77.54L59.0512 80.456Z" fill="black"/>
<path d="M188.495 30.4931L184.457 30.0445L187.375 23.7446L188.495 30.4931Z" fill="black"/>
<path d="M184.002 310.891C186.217 311.07 191.107 309.083 192.003 312.115C193.276 316.389 187.618 316.274 184.892 316.543L184.002 310.891Z" fill="black"/>
<path d="M183.554 309.09L183.1 304.136C185.685 304.392 190.326 301.899 190.339 306.154C190.345 309.397 185.967 308.577 183.554 309.083V309.09Z" fill="black"/>
<path d="M196.585 301.893C198.774 301.816 204.042 299.169 205.354 301.893C207.377 306.084 200.586 306.366 198.198 307.257L196.592 301.899L196.585 301.893Z" fill="black"/>
<path d="M146.111 303.815C147.359 305.276 146.079 307.526 144.46 308.007C143.416 308.314 137.989 307.334 137.739 306.552L138.609 301.438C140.594 302.527 144.632 302.085 146.111 303.815Z" fill="black"/>
<path d="M304.345 197.57C307.622 196.91 313.12 199.192 313.024 203.075C313.005 203.761 312.019 207.818 311.673 208.087L300.152 205.146C300.274 202.153 300.876 198.269 304.345 197.57Z" fill="black"/>
<path d="M125.002 298.387C134.993 296.368 132.779 313.422 124.208 311.128C117.993 309.468 119.901 299.419 125.002 298.387Z" fill="black"/>
<path d="M57.1375 251.571C63.0708 250.584 65.7398 258.05 60.8178 262.024C55.8958 265.997 49.6425 262.844 51.0506 256.743C51.473 254.916 55.2429 251.885 57.1375 251.564V251.571Z" fill="black"/>
<path d="M108.502 297.823L110.556 292.401C113.225 293.273 118.749 294.587 116.521 298.457C114.851 301.367 110.819 298.163 108.495 297.817L108.502 297.823Z" fill="black"/>
<path d="M274.352 265.882L270.748 259.133C271.056 258.89 277.93 261.524 277.93 262.055L274.345 265.882H274.352Z" fill="black"/>
<path d="M219.064 303.681L214.123 305.033V297.381C215.038 297.932 219.506 303.085 219.064 303.674V303.681Z" fill="black"/>
<path d="M32.9756 216.822H39.9457C40.1314 216.822 40.733 215.662 40.6178 217.04C38.5824 218.412 37.0335 220.373 34.9981 221.763L32.9756 216.822Z" fill="black"/>
<path d="M260.866 103.406V233.927H186.927C186.261 233.927 184.642 231.947 184.482 230.973C183.624 225.641 185.8 212.272 183.746 208.311C183.311 207.472 182.114 206.421 181.109 206.453C173.166 207.094 164.141 205.69 156.333 206.453C154.88 206.594 153.99 206.991 153.254 208.318C151.347 211.766 153.171 225.59 152.563 230.576C152.435 231.607 150.95 233.934 150.073 233.934H76.134V103.412H150.073C150.854 103.412 152.364 105.508 152.524 106.36C153.619 112.372 151.347 121.85 152.742 127.746C153.254 129.919 154.72 130.701 156.8 130.887C162.33 131.387 175.259 131.508 180.654 130.874C183.477 130.541 184.2 128.669 184.456 126.131C185.071 120.043 183.586 112.167 184.488 106.36C184.648 105.348 185.999 103.406 186.933 103.406H260.872H260.866ZM146.405 190.11C163.149 207.164 192.732 199.275 198.256 175.96C204.592 149.203 175.835 128.234 152.23 142.474C135.742 152.42 132.939 176.396 146.405 190.11Z" fill="white"/>
<path d="M146.405 190.11C132.939 176.396 135.742 152.42 152.23 142.474C175.835 128.234 204.593 149.203 198.256 175.96C192.732 199.281 163.149 207.171 146.405 190.11Z" fill="#E3201B"/>
</g>
<defs>
<clipPath id="clip0_69_44">
<rect width="337" height="337" fill="white"/>
</clipPath>
</defs>
</svg>
